<mxfile host="app.diagrams.net" agent="Mozilla/5.0 (Macintosh; Intel Mac OS X 10_15_7) AppleWebKit/605.1.15 (KHTML, like Gecko) Version/17.6 Safari/605.1.15" version="24.7.7">
  <diagram name="Page-1" id="58cdce13-f638-feb5-8d6f-7d28b1aa9fa0">
    <mxGraphModel dx="3468" dy="1432" grid="1" gridSize="10" guides="1" tooltips="1" connect="1" arrows="1" fold="1" page="1" pageScale="1" pageWidth="1100" pageHeight="850" background="none" math="0" shadow="0">
      <root>
        <mxCell id="0" />
        <mxCell id="1" parent="0" />
        <mxCell id="igIMH52DrBDF1QGjZ3DF-2" value="" style="group" vertex="1" connectable="0" parent="1">
          <mxGeometry x="-1096" y="25" width="1092.5" height="800" as="geometry" />
        </mxCell>
        <mxCell id="2a3bc250acf0617d-7" value="AWS EC2 (Docker Network)" style="swimlane;whiteSpace=wrap;html=1;rounded=1;shadow=0;comic=0;labelBackgroundColor=none;strokeWidth=1;fontFamily=Verdana;fontSize=12;align=center;" parent="igIMH52DrBDF1QGjZ3DF-2" vertex="1">
          <mxGeometry x="230" y="230" width="862.5" height="570" as="geometry">
            <mxRectangle x="95" y="210" width="100" height="30" as="alternateBounds" />
          </mxGeometry>
        </mxCell>
        <mxCell id="nauncTJ5Cq9mWn6NizwN-39" value="FastAPI Server" style="swimlane;" parent="2a3bc250acf0617d-7" vertex="1">
          <mxGeometry x="31.25" y="50" width="800" height="280" as="geometry" />
        </mxCell>
        <mxCell id="382b91b5511bd0f7-8" value="Langauge&lt;div&gt;Detection&lt;/div&gt;" style="rounded=1;whiteSpace=wrap;html=1;arcSize=24;fillColor=#ffffc0;strokeColor=#ff0000;shadow=0;comic=0;labelBackgroundColor=none;fontFamily=Verdana;fontSize=12;fontColor=#000000;align=center;" parent="nauncTJ5Cq9mWn6NizwN-39" vertex="1">
          <mxGeometry x="40" y="70" width="120" height="60" as="geometry" />
        </mxCell>
        <mxCell id="nauncTJ5Cq9mWn6NizwN-42" value="Context&lt;div&gt;Detection&lt;/div&gt;&lt;div&gt;(Function Call API)&lt;/div&gt;" style="rounded=1;whiteSpace=wrap;html=1;arcSize=24;fillColor=#ffffc0;strokeColor=#ff0000;shadow=0;comic=0;labelBackgroundColor=none;fontFamily=Verdana;fontSize=12;fontColor=#000000;align=center;" parent="nauncTJ5Cq9mWn6NizwN-39" vertex="1">
          <mxGeometry x="240" y="70" width="120" height="60" as="geometry" />
        </mxCell>
        <mxCell id="nauncTJ5Cq9mWn6NizwN-100" value="LLM&lt;div&gt;Generation&lt;/div&gt;&lt;div&gt;(Chat API)&lt;/div&gt;" style="rounded=1;whiteSpace=wrap;html=1;arcSize=24;fillColor=#ffffc0;strokeColor=#ff0000;shadow=0;comic=0;labelBackgroundColor=none;fontFamily=Verdana;fontSize=12;fontColor=#000000;align=center;" parent="nauncTJ5Cq9mWn6NizwN-39" vertex="1">
          <mxGeometry x="440" y="70" width="120" height="60" as="geometry" />
        </mxCell>
        <mxCell id="nauncTJ5Cq9mWn6NizwN-101" value="Translation to&amp;nbsp;&lt;div&gt;User Language&lt;div&gt;(Translation API)&lt;/div&gt;&lt;/div&gt;" style="rounded=1;whiteSpace=wrap;html=1;arcSize=24;fillColor=#ffffc0;strokeColor=#ff0000;shadow=0;comic=0;labelBackgroundColor=none;fontFamily=Verdana;fontSize=12;fontColor=#000000;align=center;" parent="nauncTJ5Cq9mWn6NizwN-39" vertex="1">
          <mxGeometry x="640" y="70" width="120" height="60" as="geometry" />
        </mxCell>
        <mxCell id="nauncTJ5Cq9mWn6NizwN-113" style="edgeStyle=orthogonalEdgeStyle;html=1;labelBackgroundColor=none;endArrow=open;endSize=8;strokeColor=#FF0000;fontFamily=Verdana;fontSize=12;align=left;rounded=0;curved=0;entryX=0;entryY=0.5;entryDx=0;entryDy=0;exitX=1;exitY=0.5;exitDx=0;exitDy=0;" parent="nauncTJ5Cq9mWn6NizwN-39" source="382b91b5511bd0f7-8" target="nauncTJ5Cq9mWn6NizwN-42" edge="1">
          <mxGeometry relative="1" as="geometry">
            <mxPoint x="430" y="-135" as="sourcePoint" />
            <mxPoint x="430" y="-85" as="targetPoint" />
          </mxGeometry>
        </mxCell>
        <mxCell id="nauncTJ5Cq9mWn6NizwN-115" style="edgeStyle=orthogonalEdgeStyle;html=1;labelBackgroundColor=none;endArrow=open;endSize=8;strokeColor=#FF0000;fontFamily=Verdana;fontSize=12;align=left;rounded=0;curved=0;entryX=0;entryY=0.5;entryDx=0;entryDy=0;exitX=1;exitY=0.5;exitDx=0;exitDy=0;" parent="nauncTJ5Cq9mWn6NizwN-39" source="nauncTJ5Cq9mWn6NizwN-42" target="nauncTJ5Cq9mWn6NizwN-100" edge="1">
          <mxGeometry relative="1" as="geometry">
            <mxPoint x="170" y="105" as="sourcePoint" />
            <mxPoint x="250" y="105" as="targetPoint" />
          </mxGeometry>
        </mxCell>
        <mxCell id="nauncTJ5Cq9mWn6NizwN-116" style="edgeStyle=orthogonalEdgeStyle;html=1;labelBackgroundColor=none;endArrow=open;endSize=8;strokeColor=#FF0000;fontFamily=Verdana;fontSize=12;align=left;rounded=0;curved=0;entryX=0;entryY=0.5;entryDx=0;entryDy=0;exitX=1;exitY=0.5;exitDx=0;exitDy=0;fontStyle=1" parent="nauncTJ5Cq9mWn6NizwN-39" edge="1">
          <mxGeometry relative="1" as="geometry">
            <mxPoint x="560" y="94.5" as="sourcePoint" />
            <mxPoint x="640" y="94.5" as="targetPoint" />
          </mxGeometry>
        </mxCell>
        <mxCell id="nauncTJ5Cq9mWn6NizwN-134" style="edgeStyle=orthogonalEdgeStyle;html=1;labelBackgroundColor=none;endArrow=open;endSize=8;strokeColor=#FF0000;fontFamily=Verdana;fontSize=12;align=left;rounded=1;curved=0;exitX=0.5;exitY=1;exitDx=0;exitDy=0;entryX=0.5;entryY=1;entryDx=0;entryDy=0;dashed=1;" parent="nauncTJ5Cq9mWn6NizwN-39" source="382b91b5511bd0f7-8" target="nauncTJ5Cq9mWn6NizwN-101" edge="1">
          <mxGeometry relative="1" as="geometry">
            <mxPoint x="140" y="160" as="sourcePoint" />
            <mxPoint x="720" y="180" as="targetPoint" />
            <Array as="points">
              <mxPoint x="100" y="160" />
              <mxPoint x="700" y="160" />
            </Array>
          </mxGeometry>
        </mxCell>
        <mxCell id="dJNh_H8suoZZvjH9-cfM-34" value="&lt;div&gt;Use RAG for User Inquiry&lt;br&gt;&lt;/div&gt;&lt;div style=&quot;&quot;&gt;To-do / To-eat / To-visit&lt;/div&gt;(Embedding Query API)" style="text;strokeColor=none;fillColor=none;spacingLeft=4;spacingRight=4;overflow=hidden;rotatable=0;points=[[0,0.5],[1,0.5]];portConstraint=eastwest;fontSize=12;whiteSpace=wrap;html=1;align=right;" parent="nauncTJ5Cq9mWn6NizwN-39" vertex="1">
          <mxGeometry x="90" y="190" width="200" height="60" as="geometry" />
        </mxCell>
        <mxCell id="dJNh_H8suoZZvjH9-cfM-45" value="&lt;div&gt;Return&lt;/div&gt;&lt;div&gt;Related Documents&lt;/div&gt;&lt;div&gt;as Context&lt;/div&gt;" style="text;strokeColor=none;fillColor=none;spacingLeft=4;spacingRight=4;overflow=hidden;rotatable=0;points=[[0,0.5],[1,0.5]];portConstraint=eastwest;fontSize=12;whiteSpace=wrap;html=1;" parent="nauncTJ5Cq9mWn6NizwN-39" vertex="1">
          <mxGeometry x="508.75" y="190" width="201.25" height="60" as="geometry" />
        </mxCell>
        <mxCell id="dJNh_H8suoZZvjH9-cfM-21" style="edgeStyle=orthogonalEdgeStyle;html=1;labelBackgroundColor=none;endArrow=open;endSize=8;strokeColor=#FF0000;fontFamily=Verdana;fontSize=12;align=left;rounded=0;curved=0;exitX=0.5;exitY=1;exitDx=0;exitDy=0;entryX=0.169;entryY=-0.006;entryDx=0;entryDy=0;entryPerimeter=0;" parent="2a3bc250acf0617d-7" source="nauncTJ5Cq9mWn6NizwN-42" edge="1" target="dJNh_H8suoZZvjH9-cfM-74">
          <mxGeometry relative="1" as="geometry">
            <mxPoint x="210" y="269" as="sourcePoint" />
            <mxPoint x="350" y="370" as="targetPoint" />
            <Array as="points">
              <mxPoint x="331" y="370" />
            </Array>
          </mxGeometry>
        </mxCell>
        <mxCell id="dJNh_H8suoZZvjH9-cfM-22" style="edgeStyle=orthogonalEdgeStyle;html=1;labelBackgroundColor=none;endArrow=open;endSize=8;strokeColor=#FF0000;fontFamily=Verdana;fontSize=12;align=left;rounded=0;curved=0;entryX=0.5;entryY=1;entryDx=0;entryDy=0;exitX=0.836;exitY=0.019;exitDx=0;exitDy=0;exitPerimeter=0;" parent="2a3bc250acf0617d-7" target="nauncTJ5Cq9mWn6NizwN-100" edge="1" source="dJNh_H8suoZZvjH9-cfM-74">
          <mxGeometry relative="1" as="geometry">
            <mxPoint x="531" y="460" as="sourcePoint" />
            <mxPoint x="450" y="474" as="targetPoint" />
            <Array as="points">
              <mxPoint x="531" y="373" />
            </Array>
          </mxGeometry>
        </mxCell>
        <mxCell id="dJNh_H8suoZZvjH9-cfM-74" value="ChromaDB" style="swimlane;" parent="2a3bc250acf0617d-7" vertex="1">
          <mxGeometry x="281.25" y="370" width="300" height="160" as="geometry" />
        </mxCell>
        <mxCell id="dJNh_H8suoZZvjH9-cfM-88" value="&lt;ul&gt;&lt;li&gt;&lt;font size=&quot;3&quot;&gt;To-do&lt;/font&gt;&lt;/li&gt;&lt;li&gt;&lt;font size=&quot;3&quot;&gt;To-eat&lt;/font&gt;&lt;/li&gt;&lt;li&gt;&lt;font size=&quot;3&quot;&gt;To-visit&lt;/font&gt;&lt;/li&gt;&lt;/ul&gt;" style="text;strokeColor=none;fillColor=none;html=1;whiteSpace=wrap;verticalAlign=middle;overflow=hidden;" parent="dJNh_H8suoZZvjH9-cfM-74" vertex="1">
          <mxGeometry x="81.25" y="40" width="100" height="80" as="geometry" />
        </mxCell>
        <mxCell id="dJNh_H8suoZZvjH9-cfM-90" value="&lt;font style=&quot;font-size: 12px;&quot;&gt;Embedding Data&lt;/font&gt;&lt;div&gt;&lt;font style=&quot;font-size: 12px;&quot;&gt;(Embedding Passage API)&lt;/font&gt;&lt;/div&gt;" style="text;strokeColor=none;fillColor=none;spacingLeft=4;spacingRight=4;overflow=hidden;rotatable=0;points=[[0,0.5],[1,0.5]];portConstraint=eastwest;fontSize=12;whiteSpace=wrap;html=1;" parent="2a3bc250acf0617d-7" vertex="1">
          <mxGeometry x="40" y="460" width="200" height="60" as="geometry" />
        </mxCell>
        <mxCell id="nauncTJ5Cq9mWn6NizwN-137" value="Terminal" style="rounded=1;whiteSpace=wrap;html=1;arcSize=24;fillColor=#dae8fc;strokeColor=#6c8ebf;shadow=0;comic=0;labelBackgroundColor=none;fontFamily=Verdana;fontSize=12;align=center;" parent="igIMH52DrBDF1QGjZ3DF-2" vertex="1">
          <mxGeometry x="40" y="650" width="120" height="60" as="geometry" />
        </mxCell>
        <mxCell id="dJNh_H8suoZZvjH9-cfM-28" value="&lt;h1 style=&quot;margin-top: 0px;&quot;&gt;Flowchart&lt;/h1&gt;&lt;p&gt;Explicit demonstration of sequential flow&lt;/p&gt;" style="text;html=1;whiteSpace=wrap;overflow=hidden;rounded=0;" parent="igIMH52DrBDF1QGjZ3DF-2" vertex="1">
          <mxGeometry x="50" y="45" width="180" height="120" as="geometry" />
        </mxCell>
        <mxCell id="dJNh_H8suoZZvjH9-cfM-89" style="edgeStyle=orthogonalEdgeStyle;html=1;labelBackgroundColor=none;endArrow=open;endSize=8;strokeColor=#6c8ebf;fontFamily=Verdana;fontSize=12;align=left;rounded=0;curved=0;exitX=1;exitY=0.5;exitDx=0;exitDy=0;entryX=0;entryY=0.5;entryDx=0;entryDy=0;fillColor=#dae8fc;" parent="igIMH52DrBDF1QGjZ3DF-2" source="nauncTJ5Cq9mWn6NizwN-137" target="dJNh_H8suoZZvjH9-cfM-74" edge="1">
          <mxGeometry relative="1" as="geometry">
            <mxPoint x="463" y="473" as="sourcePoint" />
            <mxPoint x="463.0300000000002" y="686.95" as="targetPoint" />
          </mxGeometry>
        </mxCell>
        <mxCell id="igIMH52DrBDF1QGjZ3DF-1" value="" style="group;movable=1;resizable=1;rotatable=1;deletable=1;editable=1;locked=0;connectable=1;" vertex="1" connectable="0" parent="igIMH52DrBDF1QGjZ3DF-2">
          <mxGeometry x="370" width="600" height="190" as="geometry" />
        </mxCell>
        <mxCell id="382b91b5511bd0f7-1" value="" style="ellipse;html=1;shape=startState;fillColor=#000000;strokeColor=#ff0000;rounded=1;shadow=0;comic=0;labelBackgroundColor=none;fontFamily=Verdana;fontSize=12;fontColor=#000000;align=center;direction=south;" parent="igIMH52DrBDF1QGjZ3DF-1" vertex="1">
          <mxGeometry x="276" width="30" height="30" as="geometry" />
        </mxCell>
        <mxCell id="382b91b5511bd0f7-6" value="KakaoTalk&lt;div&gt;ChatBot&lt;/div&gt;" style="rounded=1;whiteSpace=wrap;html=1;arcSize=24;fillColor=#ffffc0;strokeColor=#ff0000;shadow=0;comic=0;labelBackgroundColor=none;fontFamily=Verdana;fontSize=12;fontColor=#000000;align=center;" parent="igIMH52DrBDF1QGjZ3DF-1" vertex="1">
          <mxGeometry x="231.25" y="80" width="120" height="60" as="geometry" />
        </mxCell>
        <mxCell id="2a3bc250acf0617d-9" style="edgeStyle=orthogonalEdgeStyle;html=1;labelBackgroundColor=none;endArrow=open;endSize=8;strokeColor=#FF0000;fontFamily=Verdana;fontSize=12;align=left;" parent="igIMH52DrBDF1QGjZ3DF-1" source="382b91b5511bd0f7-1" edge="1">
          <mxGeometry relative="1" as="geometry">
            <mxPoint x="291" y="80" as="targetPoint" />
            <Array as="points">
              <mxPoint x="291" y="50" />
              <mxPoint x="291" y="50" />
            </Array>
          </mxGeometry>
        </mxCell>
        <mxCell id="nauncTJ5Cq9mWn6NizwN-110" value="&lt;div&gt;User Inquiry&lt;/div&gt;&lt;div&gt;&lt;br&gt;&lt;/div&gt;HTTP POST chat-jeju.duckdns.org" style="text;strokeColor=none;fillColor=none;spacingLeft=4;spacingRight=4;overflow=hidden;rotatable=0;points=[[0,0.5],[1,0.5]];portConstraint=eastwest;fontSize=12;whiteSpace=wrap;html=1;" parent="igIMH52DrBDF1QGjZ3DF-1" vertex="1">
          <mxGeometry x="10" y="130" width="230" height="60" as="geometry" />
        </mxCell>
        <mxCell id="nauncTJ5Cq9mWn6NizwN-136" value="&lt;div&gt;LLM Response&lt;/div&gt;&lt;div&gt;&lt;br&gt;&lt;/div&gt;HTTP POST KakaoTalk" style="text;strokeColor=none;fillColor=none;spacingLeft=4;spacingRight=4;overflow=hidden;rotatable=0;points=[[0,0.5],[1,0.5]];portConstraint=eastwest;fontSize=12;whiteSpace=wrap;html=1;align=right;" parent="igIMH52DrBDF1QGjZ3DF-1" vertex="1">
          <mxGeometry x="350" y="130" width="230" height="60" as="geometry" />
        </mxCell>
        <mxCell id="nauncTJ5Cq9mWn6NizwN-114" style="edgeStyle=orthogonalEdgeStyle;html=1;labelBackgroundColor=none;endArrow=open;endSize=8;strokeColor=#FF0000;fontFamily=Verdana;fontSize=12;align=left;exitX=0;exitY=0.5;exitDx=0;exitDy=0;entryX=0.5;entryY=0;entryDx=0;entryDy=0;" parent="igIMH52DrBDF1QGjZ3DF-2" source="382b91b5511bd0f7-6" target="382b91b5511bd0f7-8" edge="1">
          <mxGeometry relative="1" as="geometry">
            <mxPoint x="690" y="40" as="sourcePoint" />
            <mxPoint x="690" y="90" as="targetPoint" />
            <Array as="points">
              <mxPoint x="370" y="110" />
            </Array>
          </mxGeometry>
        </mxCell>
        <mxCell id="nauncTJ5Cq9mWn6NizwN-135" style="edgeStyle=orthogonalEdgeStyle;html=1;labelBackgroundColor=none;endArrow=open;endSize=8;strokeColor=#FF0000;fontFamily=Verdana;fontSize=12;align=left;rounded=1;curved=0;entryX=1;entryY=0.5;entryDx=0;entryDy=0;fontStyle=1;exitX=0.5;exitY=0;exitDx=0;exitDy=0;" parent="igIMH52DrBDF1QGjZ3DF-2" source="nauncTJ5Cq9mWn6NizwN-101" target="382b91b5511bd0f7-6" edge="1">
          <mxGeometry relative="1" as="geometry">
            <mxPoint x="960" y="360" as="sourcePoint" />
            <mxPoint x="910" y="404.5" as="targetPoint" />
            <Array as="points">
              <mxPoint x="970" y="110" />
            </Array>
          </mxGeometry>
        </mxCell>
      </root>
    </mxGraphModel>
  </diagram>
</mxfile>
